<svg id="Calque_1" data-name="Calque 1" xmlns="http://www.w3.org/2000/svg" xmlns:xlink="http://www.w3.org/1999/xlink" viewBox="0 0 139.96 248.3"><defs><style>.cls-1,.cls-10,.cls-11,.cls-2,.cls-3,.cls-5,.cls-6,.cls-7,.cls-8,.cls-9{stroke:#000;stroke-miterlimit:10;}.cls-1{stroke-width:2px;fill:url(#Dégradé_sans_nom_56);}.cls-2,.cls-3,.cls-5,.cls-8{stroke-width:0.5px;}.cls-2{fill:url(#Dégradé_sans_nom_24);}.cls-3{fill:url(#Dégradé_sans_nom_24-2);}.cls-4{fill:none;}.cls-5{fill:url(#Dégradé_sans_nom_13);}.cls-6{stroke-width:0.15px;fill:url(#Dégradé_sans_nom_13-2);}.cls-7{stroke-width:0.2px;fill:url(#Dégradé_sans_nom_13-3);}.cls-8{fill:url(#Dégradé_sans_nom_13-4);}.cls-10,.cls-11,.cls-9{stroke-width:0.25px;}.cls-10{fill:url(#Dégradé_sans_nom_13-5);}.cls-11{fill:url(#Dégradé_sans_nom_72);}</style><linearGradient id="Dégradé_sans_nom_56" x1="64" y1="42.16" x2="116" y2="42.16" gradientUnits="userSpaceOnUse"><stop offset="0" stop-color="#603813"/><stop offset="0.19" stop-color="#42210b"/><stop offset="0.57" stop-color="#371706"/><stop offset="0.79" stop-color="#2a0b00"/></linearGradient><linearGradient id="Dégradé_sans_nom_24" x1="66.76" y1="139.1" x2="102.79" y2="139.1" gradientUnits="userSpaceOnUse"><stop offset="0" stop-color="#acacac"/><stop offset="0.18" stop-color="#858585"/><stop offset="0.3" stop-color="#5a5a5a"/><stop offset="0.52" stop-color="#3c3c3c"/><stop offset="0.68" stop-color="#2b2b2b"/><stop offset="0.84" stop-color="#1a1a1a"/><stop offset="1" stop-color="#090909"/></linearGradient><linearGradient id="Dégradé_sans_nom_24-2" x1="53.06" y1="224.73" x2="75.86" y2="224.73" xlink:href="#Dégradé_sans_nom_24"/><linearGradient id="Dégradé_sans_nom_13" x1="82.61" y1="22.86" x2="108.74" y2="32.38" gradientUnits="userSpaceOnUse"><stop offset="0" stop-color="#acacac"/><stop offset="0.52" stop-color="#3c3c3c"/><stop offset="1" stop-color="#090909"/></linearGradient><linearGradient id="Dégradé_sans_nom_13-2" x1="77.2" y1="37.74" x2="103.33" y2="47.25" xlink:href="#Dégradé_sans_nom_13"/><linearGradient id="Dégradé_sans_nom_13-3" x1="70.87" y1="55.12" x2="97" y2="64.63" xlink:href="#Dégradé_sans_nom_13"/><linearGradient id="Dégradé_sans_nom_13-4" x1="86.43" y1="12.36" x2="112.57" y2="21.87" xlink:href="#Dégradé_sans_nom_13"/><linearGradient id="Dégradé_sans_nom_13-5" x1="82.01" y1="45.07" x2="97.99" y2="39.25" xlink:href="#Dégradé_sans_nom_13"/><linearGradient id="Dégradé_sans_nom_72" x1="70.8" y1="30.89" x2="76.34" y2="30.89" gradientUnits="userSpaceOnUse"><stop offset="0.19" stop-color="gray"/><stop offset="0.52" stop-color="#4d4d4d"/><stop offset="0.79" stop-color="#333"/></linearGradient></defs><title>Gauthier</title><circle class="cls-1" cx="90" cy="42.16" r="26"/><path class="cls-2" d="M101,146.64,76.8,93.71a9.18,9.18,0,0,1-.23-7.09l7.94-20.8-6-2.28L70.57,85A14.89,14.89,0,0,0,71,96.4l24.68,54a11.05,11.05,0,0,1-.33,9.85L75.88,196.36a2,2,0,0,0-2.62.9L66.76,210l9.1,4.64,6.51-12.76a2,2,0,0,0-.79-2.63l18.84-35A19.8,19.8,0,0,0,101,146.64Z"/><path class="cls-3" d="M53.75,229.7a4.14,4.14,0,0,0,1.57,6l6.5,3.31a4.14,4.14,0,0,0,5.77-2.24l8.27-22.09L66.76,210Z"/><polygon class="cls-4" points="101.3 26.77 101.03 26.67 101.03 26.67 101.3 26.77"/><polygon class="cls-5" points="93.34 23.69 91.39 28.72 99.27 32.01 101.3 26.77 101.03 26.67 101.03 26.67 93.61 23.8 93.34 23.69"/><path class="cls-6" d="M90.35,28.67a13.9,13.9,0,0,0-8.74,24.8l8,3,.52,0A13.9,13.9,0,0,0,99.27,32L91.4,28.72C91.05,28.69,90.7,28.67,90.35,28.67Z"/><path class="cls-7" d="M78.53,61.28a1.88,1.88,0,0,0,1.06,2.43L84,65.46a1.87,1.87,0,0,0,2.43-1.06l3.14-8-8-3Z"/><path class="cls-8" d="M103.92,23.34l4-10.36a1.5,1.5,0,0,0-.86-1.94L99.65,8.17A1.5,1.5,0,0,0,97.72,9l-4,10.36c-.3.77-.87,4.11-.1,4.41L101,26.67C101.8,27,103.62,24.11,103.92,23.34Z"/><circle class="cls-9" cx="90" cy="42.16" r="10.33"/><circle class="cls-10" cx="90" cy="42.16" r="8.5"/><circle class="cls-11" cx="73.57" cy="30.89" r="2.77"/></svg>