<svg id="Calque_1" data-name="Calque 1" xmlns="http://www.w3.org/2000/svg" xmlns:xlink="http://www.w3.org/1999/xlink" viewBox="0 0 1005 1005"><defs><style>.cls-1,.cls-116,.cls-2{stroke:#000;}.cls-1,.cls-10,.cls-100,.cls-101,.cls-102,.cls-103,.cls-104,.cls-105,.cls-106,.cls-107,.cls-108,.cls-109,.cls-11,.cls-110,.cls-111,.cls-112,.cls-113,.cls-114,.cls-115,.cls-116,.cls-12,.cls-13,.cls-14,.cls-15,.cls-16,.cls-17,.cls-18,.cls-19,.cls-2,.cls-20,.cls-21,.cls-22,.cls-23,.cls-24,.cls-25,.cls-26,.cls-27,.cls-28,.cls-29,.cls-3,.cls-30,.cls-31,.cls-32,.cls-33,.cls-34,.cls-35,.cls-36,.cls-37,.cls-38,.cls-39,.cls-4,.cls-40,.cls-41,.cls-42,.cls-43,.cls-44,.cls-45,.cls-46,.cls-47,.cls-48,.cls-49,.cls-5,.cls-50,.cls-51,.cls-52,.cls-53,.cls-54,.cls-55,.cls-56,.cls-57,.cls-58,.cls-59,.cls-6,.cls-60,.cls-61,.cls-62,.cls-63,.cls-64,.cls-65,.cls-66,.cls-67,.cls-68,.cls-69,.cls-7,.cls-70,.cls-71,.cls-72,.cls-73,.cls-74,.cls-75,.cls-76,.cls-77,.cls-78,.cls-79,.cls-8,.cls-80,.cls-81,.cls-82,.cls-83,.cls-84,.cls-85,.cls-86,.cls-87,.cls-88,.cls-89,.cls-9,.cls-90,.cls-91,.cls-92,.cls-93,.cls-94,.cls-95,.cls-96,.cls-97,.cls-98,.cls-99{stroke-miterlimit:10;}.cls-1{stroke-width:1.5px;}.cls-10,.cls-100,.cls-101,.cls-102,.cls-103,.cls-104,.cls-105,.cls-106,.cls-107,.cls-108,.cls-109,.cls-11,.cls-110,.cls-111,.cls-112,.cls-113,.cls-114,.cls-115,.cls-12,.cls-13,.cls-14,.cls-15,.cls-16,.cls-17,.cls-18,.cls-19,.cls-2,.cls-20,.cls-21,.cls-22,.cls-23,.cls-24,.cls-25,.cls-26,.cls-27,.cls-28,.cls-29,.cls-3,.cls-30,.cls-31,.cls-32,.cls-33,.cls-34,.cls-35,.cls-36,.cls-37,.cls-38,.cls-39,.cls-4,.cls-40,.cls-41,.cls-42,.cls-43,.cls-44,.cls-45,.cls-46,.cls-47,.cls-48,.cls-49,.cls-5,.cls-50,.cls-51,.cls-52,.cls-53,.cls-54,.cls-55,.cls-56,.cls-57,.cls-58,.cls-59,.cls-6,.cls-60,.cls-61,.cls-62,.cls-63,.cls-64,.cls-65,.cls-66,.cls-67,.cls-68,.cls-69,.cls-7,.cls-70,.cls-71,.cls-72,.cls-73,.cls-74,.cls-75,.cls-76,.cls-77,.cls-78,.cls-79,.cls-8,.cls-80,.cls-81,.cls-82,.cls-83,.cls-84,.cls-85,.cls-86,.cls-87,.cls-88,.cls-89,.cls-9,.cls-90,.cls-91,.cls-92,.cls-93,.cls-94,.cls-95,.cls-96,.cls-97,.cls-98,.cls-99{fill:none;}.cls-2{stroke-width:0.5px;}.cls-3{stroke:url(#Dégradé_sans_nom_134);}.cls-4{stroke:url(#Dégradé_sans_nom_134-2);}.cls-5{stroke:url(#Dégradé_sans_nom_134-3);}.cls-6{stroke:url(#Dégradé_sans_nom_134-4);}.cls-7{stroke:url(#Dégradé_sans_nom_134-5);}.cls-8{stroke:url(#Dégradé_sans_nom_134-6);}.cls-9{stroke:url(#Dégradé_sans_nom_134-7);}.cls-10{stroke:url(#Dégradé_sans_nom_134-8);}.cls-11{stroke:url(#Dégradé_sans_nom_134-9);}.cls-12{stroke:url(#Dégradé_sans_nom_134-10);}.cls-13{stroke:url(#Dégradé_sans_nom_134-11);}.cls-14{stroke:url(#Dégradé_sans_nom_134-12);}.cls-15{stroke:url(#Dégradé_sans_nom_134-13);}.cls-16{stroke:url(#Dégradé_sans_nom_134-14);}.cls-17{stroke:url(#Dégradé_sans_nom_134-15);}.cls-18{stroke:url(#Dégradé_sans_nom_134-16);}.cls-19{stroke:url(#Dégradé_sans_nom_134-17);}.cls-20{stroke:url(#Dégradé_sans_nom_134-18);}.cls-21{stroke:url(#Dégradé_sans_nom_134-19);}.cls-22{stroke:url(#Dégradé_sans_nom_134-20);}.cls-23{stroke:url(#Dégradé_sans_nom_134-21);}.cls-24{stroke:url(#Dégradé_sans_nom_134-22);}.cls-25{stroke:url(#Dégradé_sans_nom_134-23);}.cls-26{stroke:url(#Dégradé_sans_nom_134-24);}.cls-27{stroke:url(#Dégradé_sans_nom_134-25);}.cls-28{stroke:url(#Dégradé_sans_nom_134-26);}.cls-29{stroke:url(#Dégradé_sans_nom_134-27);}.cls-30{stroke:url(#Dégradé_sans_nom_134-28);}.cls-31{stroke:url(#Dégradé_sans_nom_134-29);}.cls-32{stroke:url(#Dégradé_sans_nom_134-30);}.cls-33{stroke:url(#Dégradé_sans_nom_134-31);}.cls-34{stroke:url(#Dégradé_sans_nom_134-32);}.cls-35{stroke:url(#Dégradé_sans_nom_134-33);}.cls-36{stroke:url(#Dégradé_sans_nom_134-34);}.cls-37{stroke:url(#Dégradé_sans_nom_134-35);}.cls-38{stroke:url(#Dégradé_sans_nom_134-36);}.cls-39{stroke:url(#Dégradé_sans_nom_134-37);}.cls-40{stroke:url(#Dégradé_sans_nom_134-38);}.cls-41{stroke:url(#Dégradé_sans_nom_134-39);}.cls-42{stroke:url(#Dégradé_sans_nom_134-40);}.cls-43{stroke:url(#Dégradé_sans_nom_134-41);}.cls-44{stroke:url(#Dégradé_sans_nom_134-42);}.cls-45{stroke:url(#Dégradé_sans_nom_134-43);}.cls-46{stroke:url(#Dégradé_sans_nom_134-44);}.cls-47{stroke:url(#Dégradé_sans_nom_134-45);}.cls-48{stroke:url(#Dégradé_sans_nom_134-46);}.cls-49{stroke:url(#Dégradé_sans_nom_134-47);}.cls-50{stroke:url(#Dégradé_sans_nom_134-48);}.cls-51{stroke:url(#Dégradé_sans_nom_134-49);}.cls-52{stroke:url(#Dégradé_sans_nom_134-50);}.cls-53{stroke:url(#Dégradé_sans_nom_134-51);}.cls-54{stroke:url(#Dégradé_sans_nom_134-52);}.cls-55{stroke:url(#Dégradé_sans_nom_134-53);}.cls-56{stroke:url(#Dégradé_sans_nom_134-54);}.cls-57{stroke:url(#Dégradé_sans_nom_134-55);}.cls-58{stroke:url(#Dégradé_sans_nom_134-56);}.cls-59{stroke:url(#Dégradé_sans_nom_134-57);}.cls-60{stroke:url(#Dégradé_sans_nom_134-58);}.cls-61{stroke:url(#Dégradé_sans_nom_134-59);}.cls-62{stroke:url(#Dégradé_sans_nom_134-60);}.cls-63{stroke:url(#Dégradé_sans_nom_134-61);}.cls-64{stroke:url(#Dégradé_sans_nom_134-62);}.cls-65{stroke:url(#Dégradé_sans_nom_134-63);}.cls-66{stroke:url(#Dégradé_sans_nom_134-64);}.cls-67{stroke:url(#Dégradé_sans_nom_134-65);}.cls-68{stroke:url(#Dégradé_sans_nom_134-66);}.cls-69{stroke:url(#Dégradé_sans_nom_134-67);}.cls-70{stroke:url(#Dégradé_sans_nom_134-68);}.cls-71{stroke:url(#Dégradé_sans_nom_134-69);}.cls-72{stroke:url(#Dégradé_sans_nom_134-70);}.cls-73{stroke:url(#Dégradé_sans_nom_134-71);}.cls-74{stroke:url(#Dégradé_sans_nom_134-72);}.cls-75{stroke:url(#Dégradé_sans_nom_134-73);}.cls-76{stroke:url(#Dégradé_sans_nom_134-74);}.cls-77{stroke:url(#Dégradé_sans_nom_134-75);}.cls-78{stroke:url(#Dégradé_sans_nom_134-76);}.cls-79{stroke:url(#Dégradé_sans_nom_134-77);}.cls-80{stroke:url(#Dégradé_sans_nom_134-78);}.cls-81{stroke:url(#Dégradé_sans_nom_134-79);}.cls-82{stroke:url(#Dégradé_sans_nom_134-80);}.cls-83{stroke:url(#Dégradé_sans_nom_134-81);}.cls-84{stroke:url(#Dégradé_sans_nom_134-82);}.cls-85{stroke:url(#Dégradé_sans_nom_134-83);}.cls-86{stroke:url(#Dégradé_sans_nom_134-84);}.cls-87{stroke:url(#Dégradé_sans_nom_134-85);}.cls-88{stroke:url(#Dégradé_sans_nom_134-86);}.cls-89{stroke:url(#Dégradé_sans_nom_134-87);}.cls-90{stroke:url(#Dégradé_sans_nom_134-88);}.cls-91{stroke:url(#Dégradé_sans_nom_134-89);}.cls-92{stroke:url(#Dégradé_sans_nom_134-90);}.cls-93{stroke:url(#Dégradé_sans_nom_134-91);}.cls-94{stroke:url(#Dégradé_sans_nom_134-92);}.cls-95{stroke:url(#Dégradé_sans_nom_134-93);}.cls-96{stroke:url(#Dégradé_sans_nom_134-94);}.cls-97{stroke:url(#Dégradé_sans_nom_134-95);}.cls-98{stroke:url(#Dégradé_sans_nom_134-96);}.cls-99{stroke:url(#Dégradé_sans_nom_134-97);}.cls-100{stroke:url(#Dégradé_sans_nom_134-98);}.cls-101{stroke:url(#Dégradé_sans_nom_134-99);}.cls-102{stroke:url(#Dégradé_sans_nom_134-100);}.cls-103{stroke:url(#Dégradé_sans_nom_134-101);}.cls-104{stroke:url(#Dégradé_sans_nom_134-102);}.cls-105{stroke:url(#Dégradé_sans_nom_134-103);}.cls-106{stroke:url(#Dégradé_sans_nom_134-104);}.cls-107{stroke:url(#Dégradé_sans_nom_134-105);}.cls-108{stroke:url(#Dégradé_sans_nom_134-106);}.cls-109{stroke:url(#Dégradé_sans_nom_134-107);}.cls-110{stroke:url(#Dégradé_sans_nom_134-108);}.cls-111{stroke:url(#Dégradé_sans_nom_134-109);}.cls-112{stroke:url(#Dégradé_sans_nom_134-110);}.cls-113{stroke:url(#Dégradé_sans_nom_134-111);}.cls-114{stroke:url(#Dégradé_sans_nom_134-112);}.cls-115{stroke:url(#Dégradé_sans_nom_134-113);}.cls-116{fill:#d5d5d5;}</style><linearGradient id="Dégradé_sans_nom_134" x1="294.37" y1="625.35" x2="708.4" y2="386.31" gradientUnits="userSpaceOnUse"><stop offset="0.22" stop-color="#1a1a1a"/><stop offset="0.5" stop-color="#666"/><stop offset="0.78" stop-color="#1a1a1a"/></linearGradient><linearGradient id="Dégradé_sans_nom_134-2" x1="292.55" y1="626.39" x2="710.23" y2="385.24" xlink:href="#Dégradé_sans_nom_134"/><linearGradient id="Dégradé_sans_nom_134-3" x1="290.72" y1="627.42" x2="712.06" y2="384.16" xlink:href="#Dégradé_sans_nom_134"/><linearGradient id="Dégradé_sans_nom_134-4" x1="288.89" y1="628.46" x2="713.89" y2="383.08" xlink:href="#Dégradé_sans_nom_134"/><linearGradient id="Dégradé_sans_nom_134-5" x1="287.06" y1="629.49" x2="715.72" y2="382.01" xlink:href="#Dégradé_sans_nom_134"/><linearGradient id="Dégradé_sans_nom_134-6" x1="285.23" y1="630.53" x2="717.55" y2="380.93" xlink:href="#Dégradé_sans_nom_134"/><linearGradient id="Dégradé_sans_nom_134-7" x1="283.4" y1="631.56" x2="719.38" y2="379.85" xlink:href="#Dégradé_sans_nom_134"/><linearGradient id="Dégradé_sans_nom_134-8" x1="281.57" y1="632.6" x2="721.21" y2="378.78" xlink:href="#Dégradé_sans_nom_134"/><linearGradient id="Dégradé_sans_nom_134-9" x1="279.74" y1="633.63" x2="723.04" y2="377.7" xlink:href="#Dégradé_sans_nom_134"/><linearGradient id="Dégradé_sans_nom_134-10" x1="277.91" y1="634.67" x2="724.86" y2="376.62" xlink:href="#Dégradé_sans_nom_134"/><linearGradient id="Dégradé_sans_nom_134-11" x1="276.08" y1="635.7" x2="726.69" y2="375.55" xlink:href="#Dégradé_sans_nom_134"/><linearGradient id="Dégradé_sans_nom_134-12" x1="274.26" y1="636.74" x2="728.52" y2="374.47" xlink:href="#Dégradé_sans_nom_134"/><linearGradient id="Dégradé_sans_nom_134-13" x1="272.43" y1="637.78" x2="730.35" y2="373.39" xlink:href="#Dégradé_sans_nom_134"/><linearGradient id="Dégradé_sans_nom_134-14" x1="270.6" y1="638.81" x2="732.18" y2="372.31" xlink:href="#Dégradé_sans_nom_134"/><linearGradient id="Dégradé_sans_nom_134-15" x1="268.77" y1="639.85" x2="734.01" y2="371.24" xlink:href="#Dégradé_sans_nom_134"/><linearGradient id="Dégradé_sans_nom_134-16" x1="266.94" y1="640.88" x2="735.84" y2="370.16" xlink:href="#Dégradé_sans_nom_134"/><linearGradient id="Dégradé_sans_nom_134-17" x1="265.11" y1="641.92" x2="737.67" y2="369.08" xlink:href="#Dégradé_sans_nom_134"/><linearGradient id="Dégradé_sans_nom_134-18" x1="263.28" y1="642.95" x2="739.5" y2="368.01" xlink:href="#Dégradé_sans_nom_134"/><linearGradient id="Dégradé_sans_nom_134-19" x1="261.45" y1="643.99" x2="741.33" y2="366.93" xlink:href="#Dégradé_sans_nom_134"/><linearGradient id="Dégradé_sans_nom_134-20" x1="259.62" y1="645.02" x2="743.15" y2="365.85" xlink:href="#Dégradé_sans_nom_134"/><linearGradient id="Dégradé_sans_nom_134-21" x1="257.79" y1="646.06" x2="744.98" y2="364.78" xlink:href="#Dégradé_sans_nom_134"/><linearGradient id="Dégradé_sans_nom_134-22" x1="255.97" y1="647.09" x2="746.81" y2="363.7" xlink:href="#Dégradé_sans_nom_134"/><linearGradient id="Dégradé_sans_nom_134-23" x1="254.14" y1="648.13" x2="748.64" y2="362.62" xlink:href="#Dégradé_sans_nom_134"/><linearGradient id="Dégradé_sans_nom_134-24" x1="252.31" y1="649.16" x2="750.47" y2="361.55" xlink:href="#Dégradé_sans_nom_134"/><linearGradient id="Dégradé_sans_nom_134-25" x1="250.48" y1="650.2" x2="752.3" y2="360.47" xlink:href="#Dégradé_sans_nom_134"/><linearGradient id="Dégradé_sans_nom_134-26" x1="248.65" y1="651.23" x2="754.13" y2="359.39" xlink:href="#Dégradé_sans_nom_134"/><linearGradient id="Dégradé_sans_nom_134-27" x1="246.82" y1="652.27" x2="755.96" y2="358.32" xlink:href="#Dégradé_sans_nom_134"/><linearGradient id="Dégradé_sans_nom_134-28" x1="244.99" y1="653.3" x2="757.79" y2="357.24" xlink:href="#Dégradé_sans_nom_134"/><linearGradient id="Dégradé_sans_nom_134-29" x1="243.16" y1="654.34" x2="759.62" y2="356.16" xlink:href="#Dégradé_sans_nom_134"/><linearGradient id="Dégradé_sans_nom_134-30" x1="241.33" y1="655.37" x2="761.44" y2="355.09" xlink:href="#Dégradé_sans_nom_134"/><linearGradient id="Dégradé_sans_nom_134-31" x1="239.5" y1="656.41" x2="763.27" y2="354.01" xlink:href="#Dégradé_sans_nom_134"/><linearGradient id="Dégradé_sans_nom_134-32" x1="237.67" y1="657.44" x2="765.1" y2="352.93" xlink:href="#Dégradé_sans_nom_134"/><linearGradient id="Dégradé_sans_nom_134-33" x1="235.85" y1="658.48" x2="766.93" y2="351.86" xlink:href="#Dégradé_sans_nom_134"/><linearGradient id="Dégradé_sans_nom_134-34" x1="234.02" y1="659.51" x2="768.76" y2="350.78" xlink:href="#Dégradé_sans_nom_134"/><linearGradient id="Dégradé_sans_nom_134-35" x1="232.19" y1="660.55" x2="770.59" y2="349.7" xlink:href="#Dégradé_sans_nom_134"/><linearGradient id="Dégradé_sans_nom_134-36" x1="230.36" y1="661.58" x2="772.42" y2="348.62" xlink:href="#Dégradé_sans_nom_134"/><linearGradient id="Dégradé_sans_nom_134-37" x1="228.53" y1="662.62" x2="774.25" y2="347.55" xlink:href="#Dégradé_sans_nom_134"/><linearGradient id="Dégradé_sans_nom_134-38" x1="226.7" y1="663.65" x2="776.08" y2="346.47" xlink:href="#Dégradé_sans_nom_134"/><linearGradient id="Dégradé_sans_nom_134-39" x1="224.87" y1="664.69" x2="777.91" y2="345.39" xlink:href="#Dégradé_sans_nom_134"/><linearGradient id="Dégradé_sans_nom_134-40" x1="223.04" y1="665.72" x2="779.73" y2="344.32" xlink:href="#Dégradé_sans_nom_134"/><linearGradient id="Dégradé_sans_nom_134-41" x1="221.21" y1="666.76" x2="781.56" y2="343.24" xlink:href="#Dégradé_sans_nom_134"/><linearGradient id="Dégradé_sans_nom_134-42" x1="219.38" y1="667.79" x2="783.39" y2="342.16" xlink:href="#Dégradé_sans_nom_134"/><linearGradient id="Dégradé_sans_nom_134-43" x1="217.56" y1="668.83" x2="785.22" y2="341.09" xlink:href="#Dégradé_sans_nom_134"/><linearGradient id="Dégradé_sans_nom_134-44" x1="215.73" y1="669.86" x2="787.05" y2="340.01" xlink:href="#Dégradé_sans_nom_134"/><linearGradient id="Dégradé_sans_nom_134-45" x1="213.9" y1="670.9" x2="788.88" y2="338.93" xlink:href="#Dégradé_sans_nom_134"/><linearGradient id="Dégradé_sans_nom_134-46" x1="212.07" y1="671.93" x2="790.71" y2="337.86" xlink:href="#Dégradé_sans_nom_134"/><linearGradient id="Dégradé_sans_nom_134-47" x1="210.24" y1="672.97" x2="792.54" y2="336.78" xlink:href="#Dégradé_sans_nom_134"/><linearGradient id="Dégradé_sans_nom_134-48" x1="208.41" y1="674.01" x2="794.37" y2="335.7" xlink:href="#Dégradé_sans_nom_134"/><linearGradient id="Dégradé_sans_nom_134-49" x1="206.58" y1="675.04" x2="796.2" y2="334.63" xlink:href="#Dégradé_sans_nom_134"/><linearGradient id="Dégradé_sans_nom_134-50" x1="204.75" y1="676.08" x2="798.02" y2="333.55" xlink:href="#Dégradé_sans_nom_134"/><linearGradient id="Dégradé_sans_nom_134-51" x1="202.92" y1="677.11" x2="799.85" y2="332.47" xlink:href="#Dégradé_sans_nom_134"/><linearGradient id="Dégradé_sans_nom_134-52" x1="201.09" y1="678.15" x2="801.68" y2="331.4" xlink:href="#Dégradé_sans_nom_134"/><linearGradient id="Dégradé_sans_nom_134-53" x1="199.27" y1="679.18" x2="803.51" y2="330.32" xlink:href="#Dégradé_sans_nom_134"/><linearGradient id="Dégradé_sans_nom_134-54" x1="197.44" y1="680.22" x2="805.34" y2="329.24" xlink:href="#Dégradé_sans_nom_134"/><linearGradient id="Dégradé_sans_nom_134-55" x1="195.61" y1="681.25" x2="807.17" y2="328.17" xlink:href="#Dégradé_sans_nom_134"/><linearGradient id="Dégradé_sans_nom_134-56" x1="193.78" y1="682.29" x2="809" y2="327.09" xlink:href="#Dégradé_sans_nom_134"/><linearGradient id="Dégradé_sans_nom_134-57" x1="191.95" y1="683.32" x2="810.83" y2="326.01" xlink:href="#Dégradé_sans_nom_134"/><linearGradient id="Dégradé_sans_nom_134-58" x1="190.12" y1="684.36" x2="812.66" y2="324.94" xlink:href="#Dégradé_sans_nom_134"/><linearGradient id="Dégradé_sans_nom_134-59" x1="188.29" y1="685.39" x2="814.49" y2="323.86" xlink:href="#Dégradé_sans_nom_134"/><linearGradient id="Dégradé_sans_nom_134-60" x1="186.46" y1="686.43" x2="816.32" y2="322.78" xlink:href="#Dégradé_sans_nom_134"/><linearGradient id="Dégradé_sans_nom_134-61" x1="184.63" y1="687.46" x2="818.14" y2="321.7" xlink:href="#Dégradé_sans_nom_134"/><linearGradient id="Dégradé_sans_nom_134-62" x1="182.8" y1="688.5" x2="819.97" y2="320.63" xlink:href="#Dégradé_sans_nom_134"/><linearGradient id="Dégradé_sans_nom_134-63" x1="180.98" y1="689.53" x2="821.8" y2="319.55" xlink:href="#Dégradé_sans_nom_134"/><linearGradient id="Dégradé_sans_nom_134-64" x1="179.15" y1="690.57" x2="823.63" y2="318.47" xlink:href="#Dégradé_sans_nom_134"/><linearGradient id="Dégradé_sans_nom_134-65" x1="177.32" y1="691.6" x2="825.46" y2="317.4" xlink:href="#Dégradé_sans_nom_134"/><linearGradient id="Dégradé_sans_nom_134-66" x1="175.49" y1="692.64" x2="827.29" y2="316.32" xlink:href="#Dégradé_sans_nom_134"/><linearGradient id="Dégradé_sans_nom_134-67" x1="173.66" y1="693.67" x2="829.12" y2="315.24" xlink:href="#Dégradé_sans_nom_134"/><linearGradient id="Dégradé_sans_nom_134-68" x1="171.83" y1="694.71" x2="830.95" y2="314.17" xlink:href="#Dégradé_sans_nom_134"/><linearGradient id="Dégradé_sans_nom_134-69" x1="170" y1="695.74" x2="832.78" y2="313.09" xlink:href="#Dégradé_sans_nom_134"/><linearGradient id="Dégradé_sans_nom_134-70" x1="168.17" y1="696.78" x2="834.61" y2="312.01" xlink:href="#Dégradé_sans_nom_134"/><linearGradient id="Dégradé_sans_nom_134-71" x1="166.34" y1="697.81" x2="836.43" y2="310.94" xlink:href="#Dégradé_sans_nom_134"/><linearGradient id="Dégradé_sans_nom_134-72" x1="164.51" y1="698.85" x2="838.26" y2="309.86" xlink:href="#Dégradé_sans_nom_134"/><linearGradient id="Dégradé_sans_nom_134-73" x1="162.69" y1="699.88" x2="840.09" y2="308.78" xlink:href="#Dégradé_sans_nom_134"/><linearGradient id="Dégradé_sans_nom_134-74" x1="160.86" y1="700.92" x2="841.92" y2="307.71" xlink:href="#Dégradé_sans_nom_134"/><linearGradient id="Dégradé_sans_nom_134-75" x1="159.03" y1="701.95" x2="843.75" y2="306.63" xlink:href="#Dégradé_sans_nom_134"/><linearGradient id="Dégradé_sans_nom_134-76" x1="157.2" y1="702.99" x2="845.58" y2="305.55" xlink:href="#Dégradé_sans_nom_134"/><linearGradient id="Dégradé_sans_nom_134-77" x1="155.37" y1="704.02" x2="847.41" y2="304.48" xlink:href="#Dégradé_sans_nom_134"/><linearGradient id="Dégradé_sans_nom_134-78" x1="153.54" y1="705.06" x2="849.24" y2="303.4" xlink:href="#Dégradé_sans_nom_134"/><linearGradient id="Dégradé_sans_nom_134-79" x1="151.71" y1="706.09" x2="851.07" y2="302.32" xlink:href="#Dégradé_sans_nom_134"/><linearGradient id="Dégradé_sans_nom_134-80" x1="149.88" y1="707.13" x2="852.9" y2="301.25" xlink:href="#Dégradé_sans_nom_134"/><linearGradient id="Dégradé_sans_nom_134-81" x1="148.05" y1="708.16" x2="854.72" y2="300.17" xlink:href="#Dégradé_sans_nom_134"/><linearGradient id="Dégradé_sans_nom_134-82" x1="146.22" y1="709.2" x2="856.55" y2="299.09" xlink:href="#Dégradé_sans_nom_134"/><linearGradient id="Dégradé_sans_nom_134-83" x1="144.4" y1="710.24" x2="858.38" y2="298.01" xlink:href="#Dégradé_sans_nom_134"/><linearGradient id="Dégradé_sans_nom_134-84" x1="142.57" y1="711.27" x2="860.21" y2="296.94" xlink:href="#Dégradé_sans_nom_134"/><linearGradient id="Dégradé_sans_nom_134-85" x1="140.74" y1="712.31" x2="862.04" y2="295.86" xlink:href="#Dégradé_sans_nom_134"/><linearGradient id="Dégradé_sans_nom_134-86" x1="138.91" y1="713.34" x2="863.87" y2="294.78" xlink:href="#Dégradé_sans_nom_134"/><linearGradient id="Dégradé_sans_nom_134-87" x1="137.08" y1="714.38" x2="865.7" y2="293.71" xlink:href="#Dégradé_sans_nom_134"/><linearGradient id="Dégradé_sans_nom_134-88" x1="135.25" y1="715.41" x2="867.53" y2="292.63" xlink:href="#Dégradé_sans_nom_134"/><linearGradient id="Dégradé_sans_nom_134-89" x1="133.42" y1="716.45" x2="869.36" y2="291.55" xlink:href="#Dégradé_sans_nom_134"/><linearGradient id="Dégradé_sans_nom_134-90" x1="131.59" y1="717.48" x2="871.19" y2="290.48" xlink:href="#Dégradé_sans_nom_134"/><linearGradient id="Dégradé_sans_nom_134-91" x1="129.76" y1="718.52" x2="873.01" y2="289.4" xlink:href="#Dégradé_sans_nom_134"/><linearGradient id="Dégradé_sans_nom_134-92" x1="127.93" y1="719.55" x2="874.84" y2="288.32" xlink:href="#Dégradé_sans_nom_134"/><linearGradient id="Dégradé_sans_nom_134-93" x1="126.11" y1="720.59" x2="876.67" y2="287.25" xlink:href="#Dégradé_sans_nom_134"/><linearGradient id="Dégradé_sans_nom_134-94" x1="124.28" y1="721.62" x2="878.5" y2="286.17" xlink:href="#Dégradé_sans_nom_134"/><linearGradient id="Dégradé_sans_nom_134-95" x1="122.45" y1="722.66" x2="880.33" y2="285.09" xlink:href="#Dégradé_sans_nom_134"/><linearGradient id="Dégradé_sans_nom_134-96" x1="120.62" y1="723.69" x2="882.16" y2="284.02" xlink:href="#Dégradé_sans_nom_134"/><linearGradient id="Dégradé_sans_nom_134-97" x1="118.79" y1="724.73" x2="883.99" y2="282.94" xlink:href="#Dégradé_sans_nom_134"/><linearGradient id="Dégradé_sans_nom_134-98" x1="116.96" y1="725.76" x2="885.82" y2="281.86" xlink:href="#Dégradé_sans_nom_134"/><linearGradient id="Dégradé_sans_nom_134-99" x1="115.13" y1="726.8" x2="887.65" y2="280.79" xlink:href="#Dégradé_sans_nom_134"/><linearGradient id="Dégradé_sans_nom_134-100" x1="113.3" y1="727.83" x2="889.48" y2="279.71" xlink:href="#Dégradé_sans_nom_134"/><linearGradient id="Dégradé_sans_nom_134-101" x1="111.47" y1="728.87" x2="891.3" y2="278.63" xlink:href="#Dégradé_sans_nom_134"/><linearGradient id="Dégradé_sans_nom_134-102" x1="109.64" y1="729.9" x2="893.13" y2="277.56" xlink:href="#Dégradé_sans_nom_134"/><linearGradient id="Dégradé_sans_nom_134-103" x1="107.82" y1="730.94" x2="894.96" y2="276.48" xlink:href="#Dégradé_sans_nom_134"/><linearGradient id="Dégradé_sans_nom_134-104" x1="105.99" y1="731.97" x2="896.79" y2="275.4" xlink:href="#Dégradé_sans_nom_134"/><linearGradient id="Dégradé_sans_nom_134-105" x1="104.16" y1="733.01" x2="898.62" y2="274.32" xlink:href="#Dégradé_sans_nom_134"/><linearGradient id="Dégradé_sans_nom_134-106" x1="102.33" y1="734.04" x2="900.45" y2="273.25" xlink:href="#Dégradé_sans_nom_134"/><linearGradient id="Dégradé_sans_nom_134-107" x1="100.5" y1="735.08" x2="902.28" y2="272.17" xlink:href="#Dégradé_sans_nom_134"/><linearGradient id="Dégradé_sans_nom_134-108" x1="98.67" y1="736.11" x2="904.11" y2="271.09" xlink:href="#Dégradé_sans_nom_134"/><linearGradient id="Dégradé_sans_nom_134-109" x1="96.84" y1="737.15" x2="905.94" y2="270.02" xlink:href="#Dégradé_sans_nom_134"/><linearGradient id="Dégradé_sans_nom_134-110" x1="95.01" y1="738.18" x2="907.77" y2="268.94" xlink:href="#Dégradé_sans_nom_134"/><linearGradient id="Dégradé_sans_nom_134-111" x1="93.18" y1="739.22" x2="909.59" y2="267.86" xlink:href="#Dégradé_sans_nom_134"/><linearGradient id="Dégradé_sans_nom_134-112" x1="91.35" y1="740.25" x2="911.42" y2="266.79" xlink:href="#Dégradé_sans_nom_134"/><linearGradient id="Dégradé_sans_nom_134-113" x1="89.53" y1="741.29" x2="913.25" y2="265.71" xlink:href="#Dégradé_sans_nom_134"/></defs><title>Vinyle lecteur</title><circle class="cls-1" cx="501.39" cy="503.5" r="495"/><circle class="cls-2" cx="499.39" cy="501.5" r="379.5"/><circle class="cls-2" cx="499.39" cy="501.5" r="309"/><circle class="cls-3" cx="501.39" cy="505.83" r="238.5"/><circle class="cls-4" cx="501.39" cy="505.81" r="240.61"/><circle class="cls-5" cx="501.39" cy="505.79" r="242.72"/><circle class="cls-6" cx="501.39" cy="505.77" r="244.83"/><circle class="cls-7" cx="501.39" cy="505.75" r="246.95"/><circle class="cls-8" cx="501.39" cy="505.73" r="249.06"/><circle class="cls-9" cx="501.39" cy="505.71" r="251.17"/><circle class="cls-10" cx="501.39" cy="505.69" r="253.28"/><circle class="cls-11" cx="501.39" cy="505.67" r="255.39"/><circle class="cls-12" cx="501.39" cy="505.65" r="257.5"/><circle class="cls-13" cx="501.39" cy="505.62" r="259.62"/><circle class="cls-14" cx="501.39" cy="505.6" r="261.73"/><circle class="cls-15" cx="501.39" cy="505.58" r="263.84"/><circle class="cls-16" cx="501.39" cy="505.56" r="265.95"/><circle class="cls-17" cx="501.39" cy="505.54" r="268.06"/><circle class="cls-18" cx="501.39" cy="505.52" r="270.17"/><circle class="cls-19" cx="501.39" cy="505.5" r="272.29"/><circle class="cls-20" cx="501.39" cy="505.48" r="274.4"/><circle class="cls-21" cx="501.39" cy="505.46" r="276.51"/><circle class="cls-22" cx="501.39" cy="505.44" r="278.62"/><circle class="cls-23" cx="501.39" cy="505.42" r="280.73"/><circle class="cls-24" cx="501.39" cy="505.4" r="282.84"/><circle class="cls-25" cx="501.39" cy="505.37" r="284.96"/><circle class="cls-26" cx="501.39" cy="505.35" r="287.07"/><circle class="cls-27" cx="501.39" cy="505.33" r="289.18"/><circle class="cls-28" cx="501.39" cy="505.31" r="291.29"/><circle class="cls-29" cx="501.39" cy="505.29" r="293.4"/><circle class="cls-30" cx="501.39" cy="505.27" r="295.51"/><circle class="cls-31" cx="501.39" cy="505.25" r="297.63"/><circle class="cls-32" cx="501.39" cy="505.23" r="299.74"/><circle class="cls-33" cx="501.39" cy="505.21" r="301.85"/><circle class="cls-34" cx="501.39" cy="505.19" r="303.96"/><circle class="cls-35" cx="501.39" cy="505.17" r="306.07"/><circle class="cls-36" cx="501.39" cy="505.15" r="308.18"/><circle class="cls-37" cx="501.39" cy="505.12" r="310.29"/><circle class="cls-38" cx="501.39" cy="505.1" r="312.41"/><circle class="cls-39" cx="501.39" cy="505.08" r="314.52"/><circle class="cls-40" cx="501.39" cy="505.06" r="316.63"/><circle class="cls-41" cx="501.39" cy="505.04" r="318.74"/><circle class="cls-42" cx="501.39" cy="505.02" r="320.85"/><circle class="cls-43" cx="501.39" cy="505" r="322.96"/><circle class="cls-44" cx="501.39" cy="504.98" r="325.08"/><circle class="cls-45" cx="501.39" cy="504.96" r="327.19"/><circle class="cls-46" cx="501.39" cy="504.94" r="329.3"/><circle class="cls-47" cx="501.39" cy="504.92" r="331.41"/><circle class="cls-48" cx="501.39" cy="504.9" r="333.52"/><circle class="cls-49" cx="501.39" cy="504.87" r="335.63"/><circle class="cls-50" cx="501.39" cy="504.85" r="337.75"/><circle class="cls-51" cx="501.39" cy="504.83" r="339.86"/><circle class="cls-52" cx="501.39" cy="504.81" r="341.97"/><circle class="cls-53" cx="501.39" cy="504.79" r="344.08"/><circle class="cls-54" cx="501.39" cy="504.77" r="346.19"/><circle class="cls-55" cx="501.39" cy="504.75" r="348.3"/><circle class="cls-56" cx="501.39" cy="504.73" r="350.42"/><circle class="cls-57" cx="501.39" cy="504.71" r="352.53"/><circle class="cls-58" cx="501.39" cy="504.69" r="354.64"/><circle class="cls-59" cx="501.39" cy="504.67" r="356.75"/><circle class="cls-60" cx="501.39" cy="504.65" r="358.86"/><circle class="cls-61" cx="501.39" cy="504.63" r="360.97"/><circle class="cls-62" cx="501.39" cy="504.6" r="363.08"/><circle class="cls-63" cx="501.39" cy="504.58" r="365.2"/><circle class="cls-64" cx="501.39" cy="504.56" r="367.31"/><circle class="cls-65" cx="501.39" cy="504.54" r="369.42"/><circle class="cls-66" cx="501.39" cy="504.52" r="371.53"/><circle class="cls-67" cx="501.39" cy="504.5" r="373.64"/><circle class="cls-68" cx="501.39" cy="504.48" r="375.75"/><circle class="cls-69" cx="501.39" cy="504.46" r="377.87"/><circle class="cls-70" cx="501.39" cy="504.44" r="379.98"/><circle class="cls-71" cx="501.39" cy="504.42" r="382.09"/><circle class="cls-72" cx="501.39" cy="504.4" r="384.2"/><circle class="cls-73" cx="501.39" cy="504.38" r="386.31"/><circle class="cls-74" cx="501.39" cy="504.35" r="388.42"/><circle class="cls-75" cx="501.39" cy="504.33" r="390.54"/><circle class="cls-76" cx="501.39" cy="504.31" r="392.65"/><circle class="cls-77" cx="501.39" cy="504.29" r="394.76"/><circle class="cls-78" cx="501.39" cy="504.27" r="396.87"/><circle class="cls-79" cx="501.39" cy="504.25" r="398.98"/><circle class="cls-80" cx="501.39" cy="504.23" r="401.09"/><circle class="cls-81" cx="501.39" cy="504.21" r="403.21"/><circle class="cls-82" cx="501.39" cy="504.19" r="405.32"/><circle class="cls-83" cx="501.39" cy="504.17" r="407.43"/><circle class="cls-84" cx="501.39" cy="504.15" r="409.54"/><circle class="cls-85" cx="501.39" cy="504.13" r="411.65"/><circle class="cls-86" cx="501.39" cy="504.1" r="413.76"/><circle class="cls-87" cx="501.39" cy="504.08" r="415.87"/><circle class="cls-88" cx="501.39" cy="504.06" r="417.99"/><circle class="cls-89" cx="501.39" cy="504.04" r="420.1"/><circle class="cls-90" cx="501.39" cy="504.02" r="422.21"/><circle class="cls-91" cx="501.39" cy="504" r="424.32"/><circle class="cls-92" cx="501.39" cy="503.98" r="426.43"/><circle class="cls-93" cx="501.39" cy="503.96" r="428.54"/><circle class="cls-94" cx="501.39" cy="503.94" r="430.66"/><circle class="cls-95" cx="501.39" cy="503.92" r="432.77"/><circle class="cls-96" cx="501.39" cy="503.9" r="434.88"/><circle class="cls-97" cx="501.39" cy="503.88" r="436.99"/><circle class="cls-98" cx="501.39" cy="503.85" r="439.1"/><circle class="cls-99" cx="501.39" cy="503.83" r="441.21"/><circle class="cls-100" cx="501.39" cy="503.81" r="443.33"/><circle class="cls-101" cx="501.39" cy="503.79" r="445.44"/><circle class="cls-102" cx="501.39" cy="503.77" r="447.55"/><circle class="cls-103" cx="501.39" cy="503.75" r="449.66"/><circle class="cls-104" cx="501.39" cy="503.73" r="451.77"/><circle class="cls-105" cx="501.39" cy="503.71" r="453.88"/><circle class="cls-106" cx="501.39" cy="503.69" r="456"/><circle class="cls-107" cx="501.39" cy="503.67" r="458.11"/><circle class="cls-108" cx="501.39" cy="503.65" r="460.22"/><circle class="cls-109" cx="501.39" cy="503.63" r="462.33"/><circle class="cls-110" cx="501.39" cy="503.6" r="464.44"/><circle class="cls-111" cx="501.39" cy="503.58" r="466.55"/><circle class="cls-112" cx="501.39" cy="503.56" r="468.67"/><circle class="cls-113" cx="501.39" cy="503.54" r="470.78"/><circle class="cls-114" cx="501.39" cy="503.52" r="472.89"/><circle class="cls-115" cx="501.39" cy="503.5" r="475"/><circle class="cls-116" cx="501.39" cy="503.5" r="210"/></svg>